# xmcd
#
# Track frame offsets:
#	150
#	17736
#	37284
#	54934
#	77675
#	95179
#	113906
#	128135
#	145799
#	161880
#
# Disc length: 2431 seconds
# Revision: 0
# Processed by: cddbd v1.5.2PL0 Copyright (c) Steve Scherf et al.
# Submitted via: dBpowerAMP V12.0
#
DISCID=88097d0a
DTITLE=Kevin Skinner - Long Ride
DYEAR=2010
DGENRE=Country
TTITLE0=Long Ride
TTITLE1=Solid Ground
TTITLE2=Without You
TTITLE3=Her Stone
TTITLE4=Like It's The Last Goodbye
TTITLE5=Road Of A Hard Outlaw
TTITLE6=Off To Heaven
TTITLE7=Soldier's Last Breath
TTITLE8=Redneck Country Town
TTITLE9=Find Your Way Back Home
EXTD=
EXTT0=
EXTT1=
EXTT2=
EXTT3=
EXTT4=
EXTT5=
EXTT6=
EXTT7=
EXTT8=
EXTT9=
PLAYORDER=
